<svg display="block" role="presentation" viewBox="0 0 32 32" xmlns="http://www.w3.org/2000/svg"><path d="M 26 11.639 L 18.08 11.639 L 24.939 7.679 L 23.578 5.321 L 16.718 9.282 L 20.678 2.422 L 18.321 1.062 L 14.361 7.92 L 14.361 0 L 11.639 0 L 11.639 7.92 L 7.679 1.062 L 5.321 2.422 L 9.281 9.28 L 2.422 5.321 L 1.061 7.679 L 7.92 11.639 L 0 11.639 L 0 14.362 L 7.92 14.362 L 1.061 18.322 L 2.422 20.68 L 9.282 16.719 L 5.321 23.579 L 7.678 24.939 L 11.639 18.08 L 11.639 26 L 14.361 26 L 14.361 17.911 L 18.394 24.896 L 20.604 23.62 L 16.57 16.633 L 23.577 20.679 L 24.938 18.321 L 18.08 14.361 L 25.999 14.361 L 25.999 11.639 Z M 13 16.701 C 12.514 16.701 12.033 16.605 11.584 16.419 C 11.135 16.233 10.727 15.96 10.383 15.617 C 10.04 15.273 9.767 14.865 9.581 14.416 C 9.395 13.967 9.299 13.486 9.299 13 C 9.299 12.513 9.395 12.032 9.581 11.583 C 9.767 11.134 10.039 10.726 10.383 10.382 C 10.726 10.038 11.134 9.766 11.583 9.58 C 12.032 9.393 12.513 9.298 12.999 9.298 C 13.98 9.298 14.922 9.687 15.616 10.381 C 16.31 11.076 16.7 12.017 16.7 12.999 C 16.7 13.98 16.31 14.922 15.616 15.616 C 14.923 16.31 13.981 16.701 13 16.701 Z" fill="rgb(98, 93, 245)" height="26px" id="AHh5YCF2W" transform="translate(3 3)" width="26px"/></svg>